# xmcd
#
# Track frame offsets: 
#        150
#        13347
#        28589
#        37734
#        48721
#        64055
#        78758
#        95885
#        110779
#        128343
#        141115
#        156636
#        173829
#        186419
#        197343
#        209431
#        218757
#        233483
#        250242
#        264458
#
# Disc length: 3625 seconds
#
# Revision: 0
# Processed by: cddbd v1.5.2PL0 Copyright (c) Steve Scherf et al.
# Submitted via: ExactAudioCopyFreeDBPlugin 1.0
#
DISCID=1c0e2714
DTITLE=Weihnachten - Weinachten-Subenmusik,Lieder&Weisen 2
DYEAR=2013
DGENRE=Christmas
TTITLE0=Leukentaler Saitenmusik - Stell ma s'Krippal auf
TTITLE1=Boarische Almmusi - Zitherkunst - Leonhard Landler
TTITLE2=4-Klang - Ultner Hirtenboarischer
TTITLE3=Haushamer Bergwachtgsang - Grod gestern auf d'Nacht
TTITLE4=Perlseer Dirndl - Filli Walzer
TTITLE5=Gröbenbach Musi - Landler aus Antholing
TTITLE6=4-Klang - Wildschön
TTITLE7=Lindmair Dreigesang - Ens. Tobias Reiser - Es wird scho glei d
TTITLE7=umpa
TTITLE8=Vilsleit'nmusi - Nacht wird's
TTITLE9=Ensemble Tobias Reiser - Tiafer Landler
TTITLE10=Julika Hirzinger - Menuett aus Platt
TTITLE11=Kitzbühler Trachtensänger - Z' Nachtn spat
TTITLE12=Gröbenbach Musi - Johannes Landler
TTITLE13=Boarische Almmusi - Es Hoamalat
TTITLE14=4-Klang - Ettinger Menuett
TTITLE15=Lindmair Dreigesang - Es mag net finster werdn
TTITLE16=Leukentaler Saitenmusik - Wenn der Mond scheint
TTITLE17=Boarische Almmusi - Stubenhocker
TTITLE18=Haushamer Bergwachtgsang - Stille Nacht
TTITLE19=Hohenaschauer Musikanten - Barbara Weis and Kössener Jodler
EXTD=
EXTT0=
EXTT1=
EXTT2=
EXTT3=
EXTT4=
EXTT5=
EXTT6=
EXTT7=
EXTT8=
EXTT9=
EXTT10=
EXTT11=
EXTT12=
EXTT13=
EXTT14=
EXTT15=
EXTT16=
EXTT17=
EXTT18=
EXTT19=
PLAYORDER=
